<?xml version="1.0" encoding="UTF-8"?>
<!DOCTYPE svg PUBLIC "-//W3C//DTD SVG 1.1//EN" "http://www.w3.org/Graphics/SVG/1.1/DTD/svg11.dtd">
<!-- Creator: CorelDRAW 2019 (64 Bit) -->
<svg xmlns="http://www.w3.org/2000/svg" xml:space="preserve" width="74.7889mm" height="56.4729mm" version="1.1" style="shape-rendering:geometricPrecision; text-rendering:geometricPrecision; image-rendering:optimizeQuality; fill-rule:evenodd; clip-rule:evenodd"
viewBox="0 0 84.86 64.08"
 xmlns:xlink="http://www.w3.org/1999/xlink">
 <defs>
  <style type="text/css">
   <![CDATA[
    .fil3 {fill:#882453}
    .fil0 {fill:#882453}
    .fil4 {fill:#C83B63}
    .fil1 {fill:#C83B63}
    .fil2 {fill:#EB5E60}
   ]]>
  </style>
 </defs>
 <g id="Camada_x0020_1">
  <metadata id="CorelCorpID_0Corel-Layer"/>
  <g id="_1605455317696">
   <rect class="fil0" x="6.4" y="23.92" width="16.1" height="4.14"/>
   <rect class="fil1" x="18.65" y="32.07" width="11.88" height="4"/>
   <rect class="fil1" x="22.84" y="36.07" width="11.61" height="4"/>
   <rect class="fil1" x="27.02" y="40.07" width="11.32" height="4"/>
   <rect class="fil1" x="14.47" y="28.06" width="11.96" height="4"/>
   <rect class="fil0" x="10.28" y="28.06" width="4.18" height="4"/>
   <rect class="fil0" x="2.23" y="20.08" width="16.2" height="3.84"/>
   <rect class="fil0" y="16.25" width="14.5" height="3.84"/>
   <rect class="fil0" y="12.09" width="10.41" height="4.15"/>
   <rect class="fil0" x="0" y="7.98" width="84.86" height="4.11"/>
   <rect class="fil0" x="0" y="44.01" width="84.86" height="7.95"/>
   <rect class="fil2" x="0" y="51.98" width="84.86" height="4.06"/>
   <rect class="fil1" x="0" y="4.06" width="84.86" height="3.91"/>
   <rect class="fil2" x="0" width="84.86" height="4.06"/>
   <polygon class="fil3" points="-0,64.08 84.86,64.07 84.86,59.98 -0,59.97 "/>
   <polygon class="fil4" points="-0,59.97 84.86,59.98 84.86,56.04 -0,56.04 "/>
   <rect class="fil1" x="-0" y="44.01" width="38.34" height="4.02"/>
   <rect class="fil0" x="14.47" y="32.07" width="4.18" height="4"/>
   <rect class="fil0" x="18.65" y="36.07" width="4.18" height="4"/>
   <rect class="fil0" x="22.84" y="40.02" width="4.18" height="4"/>
   <rect class="fil0" x="62.36" y="23.92" width="16.1" height="4.14"/>
   <rect class="fil1" x="54.33" y="32.07" width="11.88" height="4"/>
   <rect class="fil1" x="50.41" y="36.07" width="11.61" height="4"/>
   <rect class="fil1" x="46.53" y="40.07" width="11.32" height="4"/>
   <rect class="fil1" x="58.44" y="28.06" width="11.96" height="4"/>
   <rect class="fil0" x="70.4" y="28.06" width="4.18" height="4"/>
   <rect class="fil0" x="66.44" y="20.08" width="16.2" height="3.84"/>
   <rect class="fil0" x="70.37" y="16.25" width="14.5" height="3.84"/>
   <rect class="fil0" x="74.45" y="12.09" width="10.41" height="4.15"/>
   <rect class="fil1" x="46.53" y="44.01" width="38.34" height="4.02"/>
   <rect class="fil0" x="66.21" y="32.07" width="4.18" height="4"/>
   <rect class="fil0" x="62.03" y="36.07" width="4.18" height="4"/>
   <rect class="fil0" x="57.84" y="40.02" width="4.18" height="4"/>
  </g>
 </g>
</svg>
